# xmcd CD database file
#
# Track frame offsets:
#	150
#	23210
#	43370
#	60789
#	82496
#
# Disc length: 1330 seconds
#
# Revision: 0
# Processed by: cddbd v1.5.1PL0 Copyright (c) Steve Scherf et al.
# Submitted via: CDex 1.51
#
DISCID=3e053005
DTITLE=Laredo - Where I'm Standin'
DYEAR=2001
DGENRE=Country
TTITLE0=What Do I Tell My Heart?
TTITLE1=Pictures and Memories
TTITLE2=Where I'm Standin'
TTITLE3='Til You Come Here Tonight
TTITLE4=I'll Make You Mine
EXTD=YEAR: 2001
EXTT0=
EXTT1=
EXTT2=
EXTT3=
EXTT4=
PLAYORDER=
